<?xml version="1.0" encoding="UTF-8" standalone="no"?>
<svg
   xmlns:dc="http://purl.org/dc/elements/1.1/"
   xmlns:cc="http://creativecommons.org/ns#"
   xmlns:rdf="http://www.w3.org/1999/02/22-rdf-syntax-ns#"
   xmlns:svg="http://www.w3.org/2000/svg"
   xmlns="http://www.w3.org/2000/svg"
   xmlns:sodipodi="http://sodipodi.sourceforge.net/DTD/sodipodi-0.dtd"
   xmlns:inkscape="http://www.inkscape.org/namespaces/inkscape"
   version="1.1"
   x="0px"
   y="0px"
   viewBox="0 0 48 59.6"
   enable-background="new 0 0 58 55.68"
   xml:space="preserve"
   id="svg2"
   inkscape:version="0.91 r13725"
   sodipodi:docname="clay.svg"
   width="48"
   height="59.599998"><metadata
     id="metadata18"><rdf:RDF><cc:Work
         rdf:about=""><dc:format>image/svg+xml</dc:format><dc:type
           rdf:resource="http://purl.org/dc/dcmitype/StillImage" /><dc:title></dc:title></cc:Work></rdf:RDF></metadata><defs
     id="defs16" /><sodipodi:namedview
     pagecolor="#ffffff"
     bordercolor="#666666"
     borderopacity="1"
     objecttolerance="10"
     gridtolerance="10"
     guidetolerance="10"
     inkscape:pageopacity="0"
     inkscape:pageshadow="2"
     inkscape:window-width="1462"
     inkscape:window-height="795"
     id="namedview14"
     showgrid="false"
     inkscape:zoom="6.7816093"
     inkscape:cx="29.010785"
     inkscape:cy="38.647804"
     inkscape:window-x="0"
     inkscape:window-y="0"
     inkscape:window-maximized="0"
     inkscape:current-layer="svg2" /><path
     style="fill:#96a9cf;fill-rule:evenodd;stroke:#000000;stroke-width:1px;stroke-linecap:butt;stroke-linejoin:miter;stroke-opacity:1;fill-opacity:1"
     d="M 6.3406778,17.27966 41.435592,16.984745 39.371186,12.561016 35.684745,12.855932 31.408474,12.266101 26.394915,6.072881 20.201694,9.611864 17.98983,11.08644 14.155932,11.233898 12.533898,13.59322 9.8796608,12.413559 7.077966,15.215254 Z"
     id="path5372"
     inkscape:connector-curvature="0" /><path
     inkscape:connector-curvature="0"
     id="path6"
     d="m 42.840501,24.818474 c 0.868399,-0.582898 1.439402,-1.570257 1.439402,-2.68847 l 0,-3.03345 c 0,-1.498882 -1.034942,-2.747949 -2.414865,-3.116722 -0.261709,-3.997017 -2.034196,-4.877312 -3.533077,-4.877312 -1.082526,0 -1.831966,0.40446 -2.355385,0.999254 -1.165797,-0.820816 -2.605199,-1.058733 -3.878058,-0.54721 -0.844608,-3.7234121 -3.592557,-6.3999859 -6.852029,-6.3999859 -2.759845,0 -5.222293,1.9866126 -6.399986,4.9843749 C 18.227917,9.8772439 17.58554,9.7463892 16.91937,9.7463892 c -1.760591,0 -3.378431,0.9278788 -4.484748,2.5100318 -0.773232,-0.642378 -1.689216,-0.987359 -2.652782,-0.987359 -2.4862397,0 -4.5204359,2.343489 -4.7226659,5.305564 -0.7375448,0.594795 -1.225276,1.498882 -1.225276,2.521928 l 0,3.03345 c 0,1.118213 0.5710024,2.105572 1.4394019,2.68847 -0.1546465,0.975462 -0.2498135,1.950925 -0.2498135,2.938283 0,5.11523 2.0341961,9.754625 5.3293555,13.180639 l 1.510778,10.956109 c 0.249813,1.843862 1.843862,3.223785 3.699619,3.223785 l 16.975426,0 c 1.855758,0 3.449807,-1.391819 3.69962,-3.223785 l 1.510778,-10.956109 c 3.307055,-3.426014 5.341251,-8.065409 5.341251,-13.180639 0,-0.987358 -0.09517,-1.962821 -0.249813,-2.938283 z m -7.327865,14.988813 c -2.985866,2.843117 -7.018571,4.591811 -11.455736,4.591811 -4.437164,0 -8.457973,-1.76059 -11.455736,-4.591811 l -1.986612,-14.429707 26.884697,0 -1.986613,14.429707 z M 7.8784986,22.998404 l -0.8089201,0 c -0.4758354,0 -0.8565037,-0.380669 -0.8565037,-0.856504 l 0,-3.045346 c 0,-0.475836 0.3806683,-0.856504 0.8565037,-0.856504 l 33.9627475,0 c 0.475836,0 0.856504,0.380668 0.856504,0.856504 l 0,3.03345 c 0,0.475835 -0.380668,0.856504 -0.856504,0.856504 l -0.797024,0 -32.3568034,0 z M 38.331961,13.481697 c 0.761336,0 1.034942,1.260963 1.142005,2.379176 l -2.28401,0 c 0.154647,-2.379176 0.832712,-2.379176 1.142005,-2.379176 z M 9.78184,13.648239 c 0.701857,0 1.379922,0.475835 1.843862,1.296651 0.226022,0.40446 0.666169,0.642378 1.118213,0.594794 0.463939,-0.03569 0.856504,-0.333084 1.023046,-0.761336 0.630482,-1.641632 1.831966,-2.664678 3.140513,-2.664678 0.642378,0 1.284756,0.249814 1.855758,0.737545 0.321189,0.273605 0.761337,0.356876 1.153901,0.226022 0.392564,-0.130855 0.689961,-0.46394 0.785128,-0.880296 0.594794,-2.7479489 2.462448,-4.6631862 4.544228,-4.6631862 2.498135,0 4.627499,2.7717412 4.734561,6.1858592 0.0119,0.487732 0.333085,0.927879 0.797025,1.082526 0.463939,0.154646 0.975462,0.02379 1.296651,-0.356877 0.309293,-0.368772 0.820816,-0.797024 1.498881,-0.797024 0.618586,0 1.082526,0.356876 1.403715,0.701857 -0.107063,0.523419 -0.154647,1.034942 -0.190334,1.510777 l -27.2177824,0 C 7.9141862,14.576118 8.7825857,13.648239 9.78184,13.648239 Z M 7.4026632,27.756757 c 0,-0.797024 0.071375,-1.594048 0.1903342,-2.379177 l 0.6185859,0 1.4869855,10.777671 C 8.247271,33.680907 7.4026632,30.813999 7.4026632,27.756757 Z M 33.8829,51.56042 c -0.09517,0.66617 -0.666169,1.177693 -1.344235,1.177693 l -16.96353,0 c -0.678065,0 -1.249068,-0.499627 -1.344235,-1.177693 l -1.142004,-8.279535 c 3.104825,2.200739 6.887716,3.509286 10.968004,3.509286 4.080289,0 7.86318,-1.308547 10.968005,-3.509286 L 33.8829,51.56042 Z m 4.532332,-15.417065 1.486986,-10.777671 0.618585,0 c 0.107063,0.785129 0.190335,1.582153 0.190335,2.379177 0,3.069138 -0.844608,5.936046 -2.295906,8.398494 z" /></svg>