<?xml version="1.0" encoding="UTF-8" standalone="no"?><!DOCTYPE svg PUBLIC "-//W3C//DTD SVG 1.1//EN" "http://www.w3.org/Graphics/SVG/1.1/DTD/svg11.dtd"><svg width="100%" height="100%" viewBox="0 0 100 100" version="1.1" xmlns="http://www.w3.org/2000/svg" xmlns:xlink="http://www.w3.org/1999/xlink" xml:space="preserve" xmlns:serif="http://www.serif.com/" style="fill-rule:evenodd;clip-rule:evenodd;stroke-linejoin:round;stroke-miterlimit:1.41421;"><rect id="Plan-de-travail1" serif:id="Plan de travail1" x="0" y="0" width="99.915" height="99.915" style="fill:none;"/><path d="M75.105,66.103c-1.336,-1.336 -3.112,-2.072 -5.001,-2.072c-1.381,0 -2.701,0.397 -3.833,1.131l-6.782,-6.782c4.711,-5.221 7.289,-11.907 7.289,-18.991c0,-7.583 -2.953,-14.712 -8.315,-20.074c-5.362,-5.362 -12.491,-8.315 -20.074,-8.315c-7.583,0 -14.712,2.953 -20.074,8.315c-11.069,11.069 -11.069,29.08 0,40.148c5.362,5.362 12.491,8.315 20.074,8.315c7.078,0 13.759,-2.574 18.978,-7.277l6.786,6.786c-1.756,2.737 -1.442,6.428 0.949,8.819l12.823,12.823c1.336,1.335 3.112,2.071 5.002,2.071c1.889,0 3.666,-0.736 5.001,-2.072c2.758,-2.758 2.758,-7.246 0,-10.003l-12.823,-12.822Zm-54.669,-8.761c-9.899,-9.899 -9.899,-26.006 0,-35.906c4.795,-4.795 11.171,-7.436 17.953,-7.436c6.782,0 13.157,2.641 17.953,7.436c4.795,4.795 7.436,11.171 7.436,17.953c0,6.782 -2.641,13.157 -7.436,17.953c-4.795,4.796 -11.171,7.436 -17.953,7.436c-6.782,0 -13.158,-2.641 -17.953,-7.436Zm65.371,29.465c-0.769,0.769 -1.792,1.193 -2.88,1.193c-1.088,0 -2.111,-0.424 -2.88,-1.193l-12.823,-12.823c-1.588,-1.588 -1.588,-4.172 0,-5.761c0.77,-0.769 1.792,-1.193 2.88,-1.193c1.088,0 2.111,0.424 2.88,1.193l12.823,12.823c1.588,1.588 1.588,4.173 0,5.761Z" style="fill-rule:nonzero;"/></svg>