<svg xmlns="http://www.w3.org/2000/svg" xmlns:xlink="http://www.w3.org/1999/xlink" version="1.1" x="0px" y="0px" viewBox="0 0 100 125" style="enable-background:new 0 0 100 100;" xml:space="preserve"><path d="M75.105,65.103c-1.336-1.336-3.112-2.072-5.001-2.072c-1.381,0-2.701,0.397-3.833,1.131l-6.782-6.782  c4.711-5.221,7.289-11.907,7.289-18.991c0-7.583-2.953-14.712-8.315-20.074C53.101,12.953,45.972,10,38.389,10  s-14.712,2.953-20.074,8.315c-11.069,11.069-11.069,29.08,0,40.148c5.362,5.362,12.491,8.315,20.074,8.315  c7.078,0,13.759-2.574,18.978-7.277l6.786,6.786c-1.756,2.737-1.442,6.428,0.949,8.819l12.823,12.823  C79.261,89.264,81.037,90,82.927,90c1.889,0,3.666-0.736,5.001-2.072c2.758-2.758,2.758-7.246,0-10.003L75.105,65.103z   M20.436,56.342c-9.899-9.899-9.899-26.006,0-35.906C25.231,15.641,31.607,13,38.389,13s13.157,2.641,17.953,7.436  c4.795,4.795,7.436,11.171,7.436,17.953s-2.641,13.157-7.436,17.953s-11.171,7.436-17.953,7.436S25.231,61.137,20.436,56.342z   M85.807,85.807C85.038,86.576,84.015,87,82.927,87c-1.088,0-2.111-0.424-2.88-1.193L67.224,72.984  c-1.588-1.588-1.588-4.172,0-5.761c0.77-0.769,1.792-1.193,2.88-1.193c1.088,0,2.111,0.424,2.88,1.193l12.823,12.823  C87.395,81.634,87.395,84.219,85.807,85.807z"/><text x="0" y="115" fill="#000000" font-size="5px" font-weight="bold" font-family="'Helvetica Neue', Helvetica, Arial-Unicode, Arial, Sans-serif">Created by Maxim Kulikov</text><text x="0" y="120" fill="#000000" font-size="5px" font-weight="bold" font-family="'Helvetica Neue', Helvetica, Arial-Unicode, Arial, Sans-serif">from the Noun Project</text></svg>